<svg width="895" height="502" viewBox="0 0 895 502" fill="none" xmlns="http://www.w3.org/2000/svg">
<g clip-path="url(#clip0_0_55)">
<path d="M599.742 0.768066C539.757 0.768066 454.674 15.9647 363.628 45.4456C200.137 98.3778 79.2759 177.32 93.6715 221.775C100.057 241.466 131.897 251.078 179.622 251.078C189.457 251.078 199.981 250.677 211.061 249.854C211.907 248.764 212.797 247.607 213.687 246.383C225.368 230.653 235.113 224.334 243.991 223.8C244.414 223.777 244.859 223.755 245.281 223.755C250.332 223.755 255.116 225.624 259.855 228.672C264.016 231.365 270.335 236.104 277.076 241.399C277.521 241.332 277.966 241.243 278.411 241.154C277.699 231.476 277.388 222.798 278.077 218.237C278.322 216.568 278.99 215.055 279.946 213.654C279.145 207.691 288.557 209.382 283.44 203.619C277.276 196.699 285.754 190.025 290.359 184.64C294.987 179.256 291.249 173.871 292.028 160.788C292.807 147.705 303.064 128.459 321.531 121.273C324.802 120.005 328.028 119.471 331.121 119.471C345.494 119.471 357.042 130.751 357.042 130.751C357.042 130.751 370.258 133.822 371.415 145.636C372.572 157.429 364.229 173.604 361.67 181.169C359.111 188.734 363.984 187.978 363.294 193.228C362.604 198.479 358.844 198.368 362.449 205.421C363.784 208.047 363.383 210.428 362.36 212.408C363.717 213.543 364.763 214.744 365.297 215.945C365.608 216.68 366.276 218.437 367.188 220.907C382.295 216.746 397.692 212.163 413.245 207.157V47.6706V47.6261C413.245 47.6261 413.245 47.6038 413.245 47.5816V47.5593C413.245 47.5593 413.245 47.4926 413.245 47.4703C413.245 47.4703 413.245 47.4481 413.245 47.4258C413.245 47.4258 413.245 47.4036 413.245 47.3813C413.311 44.3776 414.29 41.5964 415.937 39.3269C417.962 36.5012 421.01 34.4542 424.525 33.6755C424.525 33.6755 424.525 33.6755 424.548 33.6755C425.438 33.4752 426.35 33.364 427.284 33.3417C427.284 33.3417 427.307 33.3417 427.329 33.3417C427.329 33.3417 427.351 33.3417 427.373 33.3417C427.373 33.3417 427.396 33.3417 427.418 33.3417C427.418 33.3417 427.44 33.3417 427.462 33.3417C427.462 33.3417 427.462 33.3417 427.485 33.3417H427.507H686.383C686.182 32.2515 685.916 31.1612 685.582 30.0932C679.307 10.38 647.468 0.768066 599.742 0.768066Z" fill="#F2F6FB"/>
<path d="M387.546 290.972L385.366 304.41C385.366 304.41 380.093 303.699 378.379 303.098C377.779 302.898 376.844 300.695 375.843 297.958C370.77 301.095 365.92 304.233 361.292 307.37C361.336 308.415 361.358 309.372 361.403 310.284C361.47 311.753 361.536 312.999 361.559 313.956C361.981 313.956 362.426 313.911 362.871 313.911C365.274 313.911 367.922 314.267 369.991 315.691C371.638 316.826 373.774 318.717 375.776 320.608L382.473 322.121L387.524 290.994M726.455 192.383C725.364 192.383 724.252 192.383 723.139 192.383V224.356C723.139 232.299 716.709 238.729 708.766 238.729H502.044C472.073 249.587 444.261 261.491 419.497 273.839H476.078C477.346 273.839 478.325 274.996 478.103 276.242L468.157 333.313L467.757 335.627C467.601 336.606 466.733 337.318 465.754 337.318H444.839L450.713 340.655L478.147 382.463C478.147 382.463 488.293 386.023 499.418 390.406C503.668 392.075 508.051 393.832 512.1 395.59C533.905 390.428 556.555 384.087 579.651 376.611C718.912 331.511 821.083 261.824 807.866 220.929C801.681 201.795 771.31 192.361 726.477 192.361" fill="#F2F6FB"/>
<path d="M191.837 272.037C186.208 273.639 180.512 275.352 174.75 277.221C105.086 299.783 53.5997 333.513 59.7851 352.604C62.5441 361.103 76.25 365.241 96.7642 365.241C109.803 365.241 125.6 363.573 143.088 360.257C148.072 341.345 156.082 323.189 164.448 309.728C177.153 289.281 184.807 279.869 191.837 272.037Z" fill="#F2F6FB"/>
<path d="M767.194 111.928C755.691 111.928 742.408 114.042 728.769 118.469C726.877 119.092 725.008 119.738 723.184 120.405V184.084C731.149 183.083 739.604 181.214 748.193 178.432C783.748 166.929 808.222 144.168 802.86 127.614C799.567 117.401 785.683 111.95 767.216 111.95" fill="#F2F6FB"/>
<path d="M748.237 348.287C728.947 348.287 703.27 352.715 676.126 361.503C623.082 378.68 584.434 406.025 589.797 422.579C592.422 430.656 605.015 434.683 623.416 434.683C642.707 434.683 668.383 430.255 695.527 421.467C748.571 404.29 787.219 376.945 781.857 360.391C779.231 352.314 766.638 348.287 748.237 348.287Z" fill="#F2F6FB"/>
<path d="M725.832 206.067C725.832 206.067 744.566 196.811 748.905 173.96C753.243 151.11 758.828 123.119 780.099 142.543C801.347 161.968 782.057 217.414 748.905 231.075L715.753 244.714C715.753 244.714 715.752 207.936 725.832 206.089V206.067Z" fill="#1D5B45"/>
<path d="M704.45 241.399C704.45 241.399 737.157 220.774 755.001 201.35C772.845 181.926 768.484 156.806 768.484 156.806C768.484 156.806 775.649 179.656 759.429 201.928C743.209 224.2 704.472 241.399 704.472 241.399H704.45Z" fill="#12382A"/>
<path d="M717.532 200.326C717.532 200.326 728.991 194.786 731.639 181.102C734.287 167.419 737.713 150.642 750.707 162.279C763.701 173.916 751.908 207.112 731.639 215.3L711.369 223.466C711.369 223.466 711.369 201.439 717.532 200.326Z" fill="#2C8443"/>
<path d="M704.45 221.486C704.45 221.486 724.452 209.137 735.355 197.5C746.257 185.864 743.587 170.823 743.587 170.823C743.587 170.823 747.97 184.507 738.047 197.834C728.123 211.184 704.45 221.486 704.45 221.486Z" fill="#1D5B45"/>
<path d="M732.151 229.829C732.151 229.829 748.571 220.596 779.609 201.105C810.648 181.614 816.811 170.222 814.764 188.489C812.717 206.756 804.351 226.581 773.646 238.729C742.942 250.878 701.29 248.274 732.173 229.852L732.151 229.829Z" fill="#6EAF45"/>
<path d="M731.639 242.645C731.639 242.645 742.942 240.398 768.195 222.42C793.449 204.442 798.077 200.326 798.077 200.326C798.077 200.326 771.8 222.821 759.407 231.721C747.013 240.598 731.617 242.667 731.617 242.667L731.639 242.645Z" fill="#2C8443"/>
<path d="M717.532 104.274C717.532 104.274 747.28 22.5283 777.562 37.4134C807.844 52.2985 710.346 124.009 710.346 124.009L717.532 104.252V104.274Z" fill="#2C8443"/>
<path d="M711.28 121.428C711.28 121.428 761.654 54.8572 759.34 57.4159C757.026 59.9746 725.053 113.864 711.28 121.428Z" fill="#1D5B45"/>
<path d="M708.299 128.237C708.299 128.237 752.932 70.7658 770.887 86.1627C788.843 101.559 733.174 131.307 716.509 134.645C699.844 137.982 708.299 128.237 708.299 128.237Z" fill="#6EAF45"/>
<path d="M715.73 130.796C715.73 130.796 722.739 121.184 740.272 109.436C757.805 97.7103 763.945 97.1763 763.945 97.1763C763.945 97.1763 725.476 119.76 715.708 130.773L715.73 130.796Z" fill="#2C8443"/>
<path d="M109.691 479.872C109.691 479.872 91.9805 485.88 83.2586 471.818C74.5367 457.756 83.6368 454.463 69.0633 449.39C54.5119 444.317 50.9742 441.113 48.0372 431.034C45.1003 420.955 29.9482 423.269 24.1855 411.321C18.4228 399.373 27.0112 403.155 15.3301 387.002C3.64897 370.848 -3.7157 361.392 1.86899 357.454C7.45368 353.516 19.0236 353.405 26.989 365.531C34.9544 377.657 41.6961 384.421 51.2635 384.042C60.8308 383.664 61.6986 405.847 73.3352 405.38C84.9718 404.913 94.5392 410.542 98.4552 421.467C102.371 432.391 117.301 429.521 124.643 441.313C132.008 453.083 135.902 466.011 135.902 466.011L109.647 479.85L109.691 479.872Z" fill="#2C8443"/>
<path d="M25.6317 380.928C25.6317 380.928 26.0545 381.395 26.8554 382.285C31.8839 387.914 51.9532 410.052 76.5837 433.014C105.13 459.603 125.845 471.351 125.845 471.351L122.529 473.086C122.529 473.086 107.8 465.187 79.6096 438.732C51.4192 412.277 25.6317 380.905 25.6317 380.905V380.928Z" fill="#1D5B45"/>
<path d="M107.644 465.788C107.644 465.788 83.6146 464.564 79.8544 443.605C76.0942 422.668 88.5318 423.046 73.5355 410.075C58.5391 397.103 55.8247 391.607 57.0929 378.146C58.3611 364.707 39.1374 360.28 37.9136 343.259C36.6899 326.238 45.167 334.848 38.8704 309.973C32.5737 285.098 28.2572 270.324 36.8011 268.255C45.345 266.185 59.2289 271.57 63.0113 289.837C66.7938 308.104 71.6442 319.407 83.2586 323.501C94.8952 327.595 85.3946 354.539 99.5232 359.501C113.674 364.463 122.44 375.721 121.929 390.651C121.417 405.58 140.641 409.229 143.845 426.806C147.049 444.384 145.58 461.694 145.58 461.694L107.622 465.766L107.644 465.788Z" fill="#6EAF45"/>
<path d="M54.0447 307.592C54.0447 307.592 54.3117 308.371 54.8457 309.795C58.1831 318.917 71.6887 354.918 90.245 394.055C111.761 439.4 130.94 463.274 130.94 463.274L126.156 463.786C126.156 463.786 112.295 447.365 91.135 402.354C69.9755 357.343 54.0447 307.592 54.0447 307.592Z" fill="#2C8443"/>
<path d="M149.185 461.316C149.185 461.316 129.405 457.355 132.764 443.627C136.124 429.921 135.857 419.264 128.559 411.677C121.261 404.067 116.166 393.187 120.171 379.793C124.176 366.398 122.974 363.728 116.989 350.134C110.982 336.539 103.929 315.936 120.393 311.508C136.858 307.08 140.752 343.259 148.361 352.359C155.993 361.459 173.415 365.041 175.729 381.951C178.043 398.838 172.436 404.69 187.877 413.323C203.318 421.956 198.668 449.523 194.151 456.488L149.185 461.316Z" fill="#2C8443"/>
<path d="M132.987 344.282C132.987 344.282 153.123 416.282 161.311 433.326C169.499 450.369 173.704 458.69 173.704 458.69L168.787 459.224C168.787 459.224 136.013 374.52 132.965 344.304L132.987 344.282Z" fill="#1D5B45"/>
<path d="M723.184 47.6706V224.334C723.184 232.277 716.754 238.707 708.811 238.707H427.64C419.697 238.707 413.267 232.277 413.267 224.334V47.6706C413.267 39.7274 419.697 33.2972 427.64 33.2972H708.811C716.754 33.2972 723.184 39.7274 723.184 47.6706Z" fill="#E1E6F4"/>
<path d="M723.184 47.6706V62.0439H413.289V47.6706C413.289 41.3517 417.361 35.9895 423.035 34.0537C424.481 33.5642 426.038 33.2972 427.663 33.2972H708.833C716.776 33.2972 723.206 39.7274 723.206 47.6706" fill="#6776E8"/>
<path d="M424.57 72.8128V228.116C424.57 230.096 426.172 231.698 428.152 231.698H564.632C566.612 231.698 568.214 230.096 568.214 228.116V227.048C568.214 225.068 569.816 223.466 571.797 223.466H723.162V224.356C723.162 232.299 716.731 238.729 708.788 238.729H427.618C419.675 238.729 413.245 232.299 413.245 224.356V63.4902C413.912 62.6002 414.958 62.0439 416.115 62.0439H723.139V69.2306H428.13C426.15 69.2306 424.548 70.8326 424.548 72.8128" fill="#C3C9E0"/>
<mask id="mask0_0_55" style="mask-type:luminance" maskUnits="userSpaceOnUse" x="413" y="34" width="311" height="29">
<path d="M423.035 34.0759C417.339 36.0117 413.289 41.3516 413.289 47.6928V62.0661H723.184V54.3677H427.151C424.904 54.3677 423.057 52.521 423.057 50.2738V34.0982" fill="white"/>
</mask>
<g mask="url(#mask0_0_55)">
<path d="M723.162 34.0759H413.267V62.0439H723.162V34.0759Z" fill="#5350CD"/>
</g>
<path d="M628.378 38.1699H471.161C469.537 38.1699 468.202 39.4827 468.202 41.1291C468.202 42.7756 469.514 44.0884 471.161 44.0884H628.378C630.002 44.0884 631.337 42.7756 631.337 41.1291C631.337 39.4827 630.024 38.1699 628.378 38.1699Z" fill="#67A2E6"/>
<path d="M689.876 37.4135H644.82C643.063 37.4135 641.616 38.8374 641.616 40.6174V40.8844C641.616 42.6644 643.04 44.0884 644.82 44.0884H689.876C691.634 44.0884 693.08 42.6644 693.08 40.8844V40.6174C693.08 38.8374 691.634 37.4135 689.876 37.4135Z" fill="#67A2E6"/>
<path d="M578.316 110.103H550.793C548.335 110.103 546.343 112.096 546.343 114.553V137.293C546.343 139.75 548.335 141.743 550.793 141.743H578.316C580.773 141.743 582.766 139.75 582.766 137.293V114.553C582.766 112.096 580.773 110.103 578.316 110.103Z" fill="#4167AA"/>
<path d="M566.501 126.857L568.793 133.199H560.293L562.518 126.813C561.183 126.101 560.293 124.677 560.293 123.075C560.293 120.717 562.185 118.825 564.543 118.825C566.902 118.825 568.793 120.717 568.793 123.075C568.793 124.722 567.858 126.123 566.501 126.857Z" fill="#343D5B"/>
<path d="M578.605 110.103H572.442V102.961C572.442 98.5112 568.815 94.8845 564.365 94.8845C559.915 94.8845 556.288 98.5112 556.288 102.961V106.543H550.125V102.961C550.125 95.107 556.511 88.7213 564.365 88.7213C572.219 88.7213 578.605 95.107 578.605 102.961V110.103Z" fill="#8697BF"/>
<path d="M633.718 162.257H493.144C490.686 162.257 488.694 164.249 488.694 166.707V180.034C488.694 182.492 490.686 184.484 493.144 184.484H633.718C636.175 184.484 638.168 182.492 638.168 180.034V166.707C638.168 164.249 636.175 162.257 633.718 162.257Z" fill="white"/>
<path d="M633.718 194.764H493.144C490.686 194.764 488.694 196.756 488.694 199.214V212.541C488.694 214.999 490.686 216.991 493.144 216.991H633.718C636.175 216.991 638.168 214.999 638.168 212.541V199.214C638.168 196.756 636.175 194.764 633.718 194.764Z" fill="white"/>
<path d="M619.789 176.452H507.428C505.87 176.452 504.602 175.184 504.602 173.627C504.602 172.069 505.87 170.801 507.428 170.801H619.789C621.347 170.801 622.615 172.069 622.615 173.627C622.615 175.184 621.347 176.452 619.789 176.452Z" fill="#C3C9E0"/>
<path d="M528.81 206.69C528.81 208.269 527.52 209.56 525.94 209.56C524.36 209.56 523.07 208.269 523.07 206.69C523.07 205.11 524.36 203.819 525.94 203.819C527.52 203.819 528.81 205.11 528.81 206.69Z" fill="#C3C9E0"/>
<path d="M539.579 206.69C539.579 208.269 538.288 209.56 536.709 209.56C535.129 209.56 533.838 208.269 533.838 206.69C533.838 205.11 535.129 203.819 536.709 203.819C538.288 203.819 539.579 205.11 539.579 206.69Z" fill="#C3C9E0"/>
<path d="M550.348 206.69C550.348 208.269 549.057 209.56 547.478 209.56C545.898 209.56 544.607 208.269 544.607 206.69C544.607 205.11 545.898 203.819 547.478 203.819C549.057 203.819 550.348 205.11 550.348 206.69Z" fill="#C3C9E0"/>
<path d="M561.139 206.69C561.139 208.269 559.848 209.56 558.269 209.56C556.689 209.56 555.398 208.269 555.398 206.69C555.398 205.11 556.689 203.819 558.269 203.819C559.848 203.819 561.139 205.11 561.139 206.69Z" fill="#C3C9E0"/>
<path d="M571.908 206.69C571.908 208.269 570.617 209.56 569.038 209.56C567.458 209.56 566.167 208.269 566.167 206.69C566.167 205.11 567.458 203.819 569.038 203.819C570.617 203.819 571.908 205.11 571.908 206.69Z" fill="#C3C9E0"/>
<path d="M582.677 206.69C582.677 208.269 581.386 209.56 579.806 209.56C578.227 209.56 576.936 208.269 576.936 206.69C576.936 205.11 578.227 203.819 579.806 203.819C581.386 203.819 582.677 205.11 582.677 206.69Z" fill="#C3C9E0"/>
<path d="M593.446 206.69C593.446 208.269 592.155 209.56 590.575 209.56C588.996 209.56 587.705 208.269 587.705 206.69C587.705 205.11 588.996 203.819 590.575 203.819C592.155 203.819 593.446 205.11 593.446 206.69Z" fill="#C3C9E0"/>
<path d="M604.237 206.69C604.237 208.269 602.946 209.56 601.366 209.56C599.787 209.56 598.496 208.269 598.496 206.69C598.496 205.11 599.787 203.819 601.366 203.819C602.946 203.819 604.237 205.11 604.237 206.69Z" fill="#C3C9E0"/>
<path d="M894.44 476.09C894.44 489.974 709.434 501.232 481.218 501.232C253.002 501.232 67.9952 489.974 67.9952 476.09C67.9952 462.206 253.002 450.948 481.218 450.948C709.434 450.948 894.44 462.206 894.44 476.09Z" fill="#E1E6F4"/>
<path d="M559.581 469.838C559.581 478.671 471.695 485.835 363.294 485.835C254.893 485.835 167.007 478.671 167.007 469.838C167.007 461.004 254.893 453.84 363.294 453.84C471.695 453.84 559.581 461.004 559.581 469.838Z" fill="#9EA9CC"/>
<path d="M807.822 465.477C807.822 469.526 766.015 472.819 714.44 472.819C662.865 472.819 621.058 469.526 621.058 465.477C621.058 461.427 662.865 458.134 714.44 458.134C766.015 458.134 807.822 461.427 807.822 465.477Z" fill="#9EA9CC"/>
<path d="M523.136 437.62C516.884 465.499 479.972 473.531 394.288 475.066C308.604 476.601 217.781 472.507 168.03 450.97C118.257 429.41 139.818 349.355 164.448 309.706C189.078 270.079 194.73 271.881 213.709 246.383C225.39 230.653 235.135 224.334 244.013 223.8C249.553 223.444 254.738 225.379 259.877 228.695C273.227 237.305 308.96 267.276 308.96 267.276C308.96 267.276 420.965 372.962 468.202 385.8C493.411 392.653 509.141 399.016 517.396 407.694C524.583 415.259 526.051 424.626 523.136 437.62Z" fill="#FFC655"/>
<path d="M303.576 385.177C303.175 385.177 302.797 385.199 302.463 385.266C300.26 385.667 294.787 386.401 288.335 387.135C297.168 389.249 306.513 390.806 315.791 391.986C316.814 389.827 308.493 385.177 303.576 385.177ZM281.148 268.566C272.226 272.059 253.914 285.053 239.585 333.202C231.464 360.458 250.11 375.454 276.631 383.931C280.191 383.286 283.684 382.752 286.532 382.463C298.836 381.172 281.927 381.194 265.506 370.426C249.086 359.657 256.784 337.318 256.784 337.318C261.412 358.077 267.553 356.052 274.74 360.28C275.786 360.903 276.564 361.192 277.143 361.192C280.458 361.192 276.809 350.957 279.924 333.224C281.059 326.705 283.595 320.008 286.555 313.889C286.599 312.42 286.911 310.529 287.066 308.26C287.155 306.947 287.178 305.189 287.178 303.298C287.178 298.047 286.933 291.684 286.888 290.972C286.888 290.927 286.888 290.905 286.888 290.905C286.888 290.905 286.777 290.86 285.865 290.549C284.841 290.215 284.33 290.393 283.618 287.234C283.373 286.077 282.305 278.467 281.126 268.588" fill="#FFAA56"/>
<path d="M523.136 437.62C516.884 465.499 479.972 473.531 394.288 475.066C308.604 476.601 217.781 472.507 168.03 450.97C118.257 429.41 139.818 349.355 164.448 309.706C189.078 270.079 194.73 271.881 213.709 246.383C225.39 230.653 235.135 224.334 244.013 223.8C233.645 230.853 215.823 245.293 210.105 264.183C201.894 291.372 188.9 307.592 168.542 325.748C148.183 343.904 146.47 399.64 164.448 422.201C182.404 444.784 238.851 456.577 311.185 463.763C383.519 470.95 504.647 466.634 512.078 438.532C514.882 427.83 516.484 416.994 517.396 407.694C524.583 415.259 526.051 424.626 523.136 437.62Z" fill="#FF8A57"/>
<path d="M256.784 337.296C256.784 337.296 249.086 359.634 265.506 370.403C281.927 381.172 298.837 381.15 286.532 382.44C274.228 383.731 250.11 389.382 260.367 389.382C270.624 389.382 296.901 386.312 302.441 385.288C307.981 384.265 320.908 391.963 313.722 392.987C306.535 394.01 303.464 402.732 303.464 402.732C303.464 402.732 312.298 392.653 331.232 397.437C350.167 402.22 347.118 398.571 357.865 406.559C368.612 414.547 375.287 417.617 368.1 410.186C360.913 402.754 354.795 397.615 357.865 400.173C359.178 401.264 368.122 401.241 379.737 401.197C395.245 401.152 415.47 401.108 428.486 403.756C451.225 408.406 474.832 430.656 474.832 430.656L450.713 398.104C450.713 398.104 295.299 365.019 289.091 349.555C282.883 334.092 301.395 289.837 301.395 289.837C301.395 289.837 283.529 312.398 279.902 333.179C276.275 353.961 281.904 364.463 274.718 360.235C267.531 356.03 261.368 358.055 256.762 337.273" fill="#FF8A57"/>
<path d="M174.171 353.471C174.171 353.471 144.735 398.594 205.076 425.627C265.417 452.661 307.38 449.234 308.849 447.187C310.317 445.14 316.948 439.422 305.912 430.656C294.876 421.889 218.337 408.873 208.013 389.049C197.711 369.202 193.284 338.43 174.149 353.471H174.171Z" fill="#FFE461"/>
<path d="M327.272 435.818C327.272 435.818 422.3 432.836 420.787 444.473C419.274 456.109 419.452 458.156 386.234 458.156C353.015 458.156 303.709 445.652 327.272 435.818Z" fill="#FFE461"/>
<path d="M357.086 130.796C357.086 130.796 340.021 114.131 321.554 121.295C303.086 128.482 292.829 147.728 292.05 160.811C291.272 173.893 295.01 179.278 290.382 184.662C285.754 190.047 277.299 196.722 283.462 203.641C289.625 210.561 274.74 206.712 281.927 218.393C289.113 230.074 357.086 217.881 357.086 217.881C357.086 217.881 366.075 212.497 362.471 205.444C358.889 198.39 362.627 198.524 363.316 193.251C364.006 188 359.133 188.756 361.692 181.191C364.251 173.626 372.594 157.451 371.437 145.659C370.281 133.866 357.064 130.773 357.064 130.773" fill="#252549"/>
<path d="M310.94 200.059C310.94 200.059 313.499 200.193 313.232 196.989C312.965 193.785 311.563 195.453 316.436 187.622C321.309 179.79 319.907 178.9 318.105 174.539C316.303 170.178 323.801 167.107 328.273 160.811C332.723 154.536 338.241 146.704 343.002 142.343C347.741 137.982 352.236 137.849 354.795 139.139C357.353 140.43 358.132 143.233 358.132 143.233C358.132 143.233 357.487 171.068 351.724 181.325C345.961 191.582 341.712 191.849 336.706 190.314C336.706 190.314 334.903 199.169 335.927 202.507C336.95 205.844 348.12 210.316 341.712 219.439C335.304 228.539 318.038 232.878 311.964 222.776C305.89 212.675 310.94 200.081 310.94 200.081" fill="#FFBF9F"/>
<path d="M515.616 423.647C515.616 423.647 530.968 427.073 536.508 429.899C542.049 432.747 549.347 433.704 552.684 428.876C556.022 424.047 555.443 420.666 560.961 416.26C566.501 411.832 578.983 405.246 577.003 400.596C575.023 395.946 570.818 396.925 567.324 400.44C563.809 403.956 547.567 406.804 544.607 408.228C541.626 409.652 531.502 409.763 529.389 409.763C527.275 409.763 517.084 406.07 517.084 406.07L515.616 423.669" fill="#FFBF9F"/>
<path d="M495.547 445.83C495.547 445.83 508.207 455.242 509.92 461.227C511.633 467.212 515.905 473.197 521.712 472.352C527.519 471.506 529.589 468.77 536.597 469.793C543.606 470.817 556.956 475.444 559.003 470.817C561.05 466.189 557.468 463.808 552.506 463.63C547.544 463.452 534.372 453.528 531.302 452.349C528.231 451.148 517.084 444.651 515.638 443.116C514.192 441.58 509.408 434.905 509.408 434.905L495.547 445.852V445.83Z" fill="#FFBF9F"/>
<path d="M523.136 426.272C522.269 428.23 521.512 429.632 521.023 430.188C519.042 432.436 508.985 425.916 508.474 425.56L508.518 425.627C509.208 426.339 514.681 432.213 515.638 435.818C516.573 439.711 494.879 450.191 490.763 450.97C486.669 451.748 456.899 410.164 456.899 410.164C456.899 410.164 423.035 399.906 419.185 398.126C417.339 397.259 400.54 397.236 383.697 397.437C365.697 397.659 347.63 398.126 347.63 398.126C347.63 398.126 338.664 395.056 329.675 391.452C320.686 387.869 286.933 377.857 286.933 377.857C286.933 377.857 280.436 372.717 280.436 352.203C280.436 331.689 291.717 311.753 291.717 311.753L308.715 312.977L357.932 316.537L441.791 335.516L450.78 340.655L478.214 382.463C478.214 382.463 488.36 386.023 499.485 390.406C512.59 395.546 527.141 401.775 528.254 404.557C529.811 408.473 526.007 420.042 523.181 426.295" fill="#3B345B"/>
<path d="M455.364 409.696L456.877 410.164C456.788 410.141 456.254 409.986 455.364 409.696ZM428.486 401.33L428.931 401.464C428.82 401.419 428.686 401.397 428.575 401.353C428.508 401.353 428.486 401.33 428.486 401.33Z" fill="#5D3C2E"/>
<path d="M348.876 353.471C348.876 353.471 385.566 363.995 406.347 368.089C427.129 372.183 434.048 380.927 435.851 392.453C437.074 400.351 433.181 401.597 430.6 401.597C429.621 401.597 428.842 401.419 428.575 401.353C428.686 401.397 428.82 401.419 428.931 401.464L455.364 409.674C456.254 409.941 456.788 410.097 456.877 410.141C456.231 409.296 426.595 371.137 424.57 369.113C422.523 367.066 348.898 353.471 348.898 353.471" fill="#26242F"/>
<path d="M478.17 382.44L508.451 425.538C508.896 425.85 516.283 430.633 519.688 430.633C520.266 430.633 520.733 430.5 521.023 430.166C521.512 429.61 522.269 428.186 523.136 426.25C518.241 423.602 513.791 420.354 511.032 416.438C506.16 409.585 502.177 399.128 499.44 390.384C488.315 386.023 478.17 382.44 478.17 382.44Z" fill="#26242F"/>
<path d="M288.824 317.493C285.487 324.88 280.391 338.408 280.391 352.203C280.391 372.717 286.888 377.857 286.888 377.857C286.888 377.857 320.641 387.847 329.63 391.452C338.619 395.034 347.586 398.127 347.586 398.127C347.586 398.127 365.653 397.659 383.653 397.437C355.062 393.677 316.814 379.659 305.6 357.61C299.949 346.485 302.663 331.043 306.757 318.45C298.169 318.183 291.005 317.872 288.824 317.538" fill="#26242F"/>
<path d="M372.083 285.676C372.083 285.676 376.688 302.497 378.402 303.098C380.115 303.699 385.388 304.411 385.388 304.411L388.726 283.874L386.456 280.781C386.456 280.781 369.791 277.778 372.105 285.676" fill="#FFBF9F"/>
<path d="M387.747 280.737C387.836 281.56 386.078 282.472 383.675 283.273C379.002 284.831 371.838 286.032 370.837 285.61C369.301 284.964 364.051 266.475 364.051 266.475C364.051 266.475 364.006 266.742 363.917 267.253V267.298C363.828 267.743 363.739 268.388 363.628 269.167C363.183 272.46 362.36 278.445 361.603 285.61C361.292 288.546 361.158 291.839 361.136 295.132C361.069 300.673 361.292 306.257 361.447 310.262C361.581 312.776 361.648 314.645 361.603 315.491C361.47 318.45 354.172 319.585 338.508 319.207C322.866 318.828 291.094 318.228 288.357 317.382C285.62 316.514 286.733 313.355 287.089 308.238C287.445 303.098 286.933 290.883 286.933 290.883L285.909 290.527C284.886 290.193 284.374 290.371 283.662 287.211C282.995 284.052 276.075 232.143 278.122 218.282C280.169 204.442 310.963 200.081 310.963 200.081C310.963 200.081 313.766 204.576 316.859 208.292C319.929 212.007 331.744 218.949 332.767 218.949C333.791 218.949 335.838 217.258 337.774 211.651C339.709 205.978 335.971 202.529 335.971 202.529C335.971 202.529 339.554 202.529 345.205 204.064C350.856 205.599 363.049 210.739 365.363 215.99C367.655 221.241 387.546 278.334 387.791 280.759" fill="#6776E8"/>
<path d="M363.606 269.189C363.161 272.482 362.337 278.467 361.581 285.632C361.269 288.569 361.136 291.862 361.114 295.155L363.606 269.189Z" fill="#7972D3"/>
<path d="M303.82 238.707C303.82 238.707 307.914 280.114 307.914 283.34C307.914 286.032 306.513 286.255 306.023 286.255C305.912 286.255 305.845 286.255 305.845 286.255C305.867 286.588 307.069 298.403 308.76 299.071C310.473 299.76 354.928 314.289 356.997 314.289C357.865 314.289 359.556 314.022 361.559 313.911C361.536 312.954 361.47 311.708 361.403 310.24C353.104 308.571 341.467 305.99 332.723 303.075C317.526 298.025 308.092 293.063 309.294 288.947C310.139 286.077 322.421 285.053 333.39 285.053C338.063 285.053 342.513 285.231 345.739 285.543C356.508 286.566 361.136 295.11 361.136 295.11C361.136 291.795 361.292 288.524 361.603 285.587C362.36 278.423 363.183 272.438 363.628 269.145L364.896 255.951C364.896 255.951 360.09 263.649 353.415 265.874C350.478 266.853 344.248 267.476 337.507 267.476C328.963 267.476 319.596 266.497 315.123 264.005C307.069 259.555 303.843 238.685 303.843 238.685" fill="#5350CD"/>
<path d="M286.911 290.949C286.933 291.684 287.2 298.025 287.2 303.276C287.2 305.167 287.178 306.947 287.089 308.238C286.911 310.73 286.577 312.754 286.577 314.289C286.577 315.891 286.955 316.959 288.357 317.404C290.515 318.072 310.495 318.561 326.582 318.94C318.906 317.605 310.807 316.203 305.556 314.645C293.919 311.219 291.361 309.128 290.003 305.568C288.691 302.163 287.089 291.884 286.933 290.949" fill="#5350CD"/>
<path d="M286.888 290.883C286.888 290.883 291.516 290.549 296.456 289.681C301.418 288.836 305.867 286.255 305.867 286.255C305.867 286.255 307.069 298.403 308.782 299.071C310.495 299.76 354.95 314.289 357.02 314.289C359.089 314.289 365.742 312.754 370.014 315.647C374.285 318.561 381.761 326.549 381.761 326.549C381.761 326.549 382.229 333.157 378.936 333.157C375.643 333.157 375.131 325.726 366.921 327.261C363.672 327.862 360.201 329.286 356.842 328.552C353.526 327.84 349.655 325.592 346.896 323.657C342.802 320.742 317.148 318.005 305.511 314.601C293.875 311.175 291.316 309.083 289.959 305.523C288.602 301.963 286.888 290.838 286.888 290.838" fill="#FFBF9F"/>
<path d="M357.887 232.455L364.874 255.995L363.895 267.276C363.984 266.764 364.028 266.497 364.028 266.497C364.028 266.497 369.279 284.964 370.814 285.632C370.948 285.699 371.193 285.721 371.549 285.721C373.729 285.721 379.625 284.653 383.675 283.296C382.251 283.073 380.271 282.762 377.734 282.339C371.86 281.36 368.501 267.298 368.501 260.467C368.501 253.637 358.555 233.723 357.91 232.477" fill="#5350CD"/>
<path d="M308.204 211.006C306.357 211.006 305.289 212.296 305.689 215.79C305.689 215.79 313.21 243.847 331.521 246.227C332.278 246.316 332.99 246.383 333.702 246.383C350.011 246.383 351.991 220.551 350.523 215.79C349.788 213.453 348.921 212.452 347.741 212.452C346.429 212.452 344.738 213.72 342.491 215.79C339.264 218.749 334.57 221.819 330.031 221.819C328.562 221.819 327.094 221.486 325.714 220.751C321.709 218.571 312.676 211.006 308.204 211.006Z" fill="#678EE7"/>
<path d="M508.496 425.627C509.186 426.339 514.659 432.213 515.616 435.818C511.7 430.834 508.874 426.317 508.496 425.627Z" fill="white"/>
<path d="M336.706 190.314C336.706 190.314 329.897 186.976 327.094 185.308C324.268 183.639 323.756 183.505 323.756 183.505C323.756 183.505 330.565 200.193 331.966 198.657C333.368 197.122 336.706 190.314 336.706 190.314Z" fill="#FF9B80"/>
<path d="M478.147 276.22L468.202 333.291L467.801 335.605C467.645 336.584 466.778 337.296 465.799 337.296H342.491C341.356 337.296 340.444 336.383 340.444 335.271C340.444 334.114 341.378 333.202 342.491 333.202H378.958C379.959 333.202 380.827 332.49 380.983 331.488L390.061 275.575C390.194 274.574 391.062 273.839 392.063 273.839H476.123C477.391 273.839 478.37 274.996 478.147 276.242" fill="#696B84"/>
<path d="M434.137 303.098C434.137 305.968 432.869 308.304 431.312 308.304C429.754 308.304 428.486 305.968 428.486 303.098C428.486 300.228 429.754 297.891 431.312 297.891C432.869 297.891 434.137 300.228 434.137 303.098Z" fill="#8186AA"/>
<path d="M394.577 273.817H392.063C391.062 273.817 390.194 274.529 390.061 275.553L388.703 283.874L388.37 285.921L381.784 326.594L380.983 331.466C380.827 332.468 379.959 333.18 378.958 333.18H342.491C341.356 333.18 340.444 334.114 340.444 335.227C340.444 336.384 341.378 337.273 342.491 337.273H465.799C466.778 337.273 467.645 336.584 467.801 335.582L468.202 333.269H389.549C387.035 333.269 385.099 330.999 385.499 328.485L394.577 273.795" fill="#535777"/>
<path d="M649.448 390.072H793.449C794.583 390.072 795.496 390.984 795.496 392.119V404.49C795.496 405.625 794.583 406.537 793.449 406.537H649.448C648.314 406.537 647.401 405.625 647.401 404.49V392.119C647.401 390.984 648.314 390.072 649.448 390.072Z" fill="#FF8A57"/>
<path d="M795.518 399.996V404.49C795.518 405.647 794.583 406.537 793.471 406.537H649.47C648.336 406.537 647.424 405.625 647.424 404.49V392.119C647.424 390.984 648.358 390.072 649.47 390.072H657.013V395.902C657.013 398.149 658.86 399.996 661.107 399.996H795.54H795.518Z" fill="#E25247"/>
<path d="M669.985 406.537L654.388 466.7C653.965 468.347 652.719 469.57 651.206 470.038C650.427 470.282 649.582 470.327 648.736 470.149C646.511 469.659 644.998 467.657 644.998 465.499C644.998 465.12 645.043 464.764 645.132 464.364L657.792 412.989L659.372 406.537H669.962H669.985Z" fill="#E25247"/>
<path d="M669.985 406.537L654.388 466.7C653.965 468.347 652.719 469.57 651.206 470.038C657.97 448.656 663.154 412.989 663.154 412.989H657.814L659.394 406.537H669.985Z" fill="#B2322B"/>
<path d="M770.531 406.537L786.128 466.7C786.551 468.347 787.797 469.57 789.31 470.038C790.089 470.282 790.934 470.327 791.78 470.149C794.005 469.659 795.518 467.657 795.518 465.499C795.518 465.12 795.473 464.764 795.384 464.364L782.724 412.989L781.144 406.537H770.554H770.531Z" fill="#E25247"/>
<path d="M770.531 406.537L786.128 466.7C786.551 468.347 787.797 469.57 789.31 470.038C782.546 448.656 777.362 412.989 777.362 412.989H782.702L781.122 406.537H770.531Z" fill="#B2322B"/>
<path d="M705.206 378.28C705.206 378.28 697.33 377.434 696.996 372.294C696.662 367.155 694.081 368.201 691.189 368.356C688.274 368.534 686.405 366.465 686.917 363.395C687.429 360.324 682.823 357.587 685.537 356.208C688.274 354.828 690.321 355.006 691.7 357.409C693.08 359.812 696.084 360.658 699.621 359.212C703.159 357.765 705.206 358.433 704.183 362.371C703.159 366.309 708.81 360.969 710.501 368.023C712.192 375.053 705.206 378.28 705.206 378.28Z" fill="#1D5B45"/>
<path d="M717.199 376.9C717.199 376.9 710.39 369.224 712.571 365.108C714.774 360.969 718.578 364.084 719.602 359.456C720.625 354.828 721.804 353.137 725.921 353.983C730.015 354.828 727.456 347.664 732.929 348.843C738.403 350.045 736.512 354.495 732.929 357.053C729.347 359.612 736.868 363.217 731.394 365.597C725.921 368 722.249 365.931 724.252 369.358C726.254 372.784 723.184 376.366 720.625 376.878C718.066 377.39 717.199 376.878 717.199 376.878V376.9Z" fill="#2C8443"/>
<path d="M708.811 375.187C708.811 375.187 702.314 373.296 704.361 367.667C706.408 362.015 697.864 362.015 699.911 357.565C701.958 353.115 700.244 351.58 698.375 350.223C696.484 348.843 699.399 345.261 703.582 346.974C707.765 348.688 704.183 355.362 709.478 356.208C714.774 357.053 715.463 360.146 714.262 362.883C713.06 365.62 719.913 366.309 719.557 370.915C719.223 375.543 708.788 375.187 708.788 375.187H708.811Z" fill="#6EAF45"/>
<path d="M729.837 381.506C729.837 382.44 729.703 383.264 729.458 384.087C728.368 387.558 725.12 390.05 721.315 390.05H701.802C697.085 390.05 693.258 386.223 693.258 381.506C693.258 377.901 695.461 374.831 698.598 373.563C699.577 373.162 700.667 372.94 701.802 372.94H721.315C726.032 372.94 729.859 376.767 729.859 381.484L729.837 381.506Z" fill="#C3C9E0"/>
<path d="M729.458 384.087C728.368 387.558 725.12 390.05 721.315 390.05H701.802C697.085 390.05 693.258 386.223 693.258 381.506C693.258 377.901 695.461 374.831 698.598 373.563C698.998 374.475 699.243 375.521 699.243 376.611C699.243 380.727 702.581 384.087 706.719 384.087H729.481H729.458Z" fill="#9EA9CC"/>
<path d="M736.69 227.938H582.432C577.898 227.938 574.222 231.614 574.222 236.148V309.35C574.222 313.884 577.898 317.56 582.432 317.56H736.69C741.224 317.56 744.9 313.884 744.9 309.35V236.148C744.9 231.614 741.224 227.938 736.69 227.938Z" fill="#E1E6F4"/>
<path d="M744.877 236.148V242.645H574.2V236.148C574.2 234.502 574.667 232.989 575.49 231.721C576.959 229.451 579.517 227.938 582.41 227.938H736.667C739.56 227.938 742.119 229.429 743.587 231.721C744.41 232.989 744.877 234.502 744.877 236.148Z" fill="#6776E8"/>
<path d="M690.833 263.004H628.934C627.705 263.004 626.709 264 626.709 265.229V269.167C626.709 270.396 627.705 271.392 628.934 271.392H690.833C692.062 271.392 693.058 270.396 693.058 269.167V265.229C693.058 264 692.062 263.004 690.833 263.004Z" fill="#C3C9E0"/>
<path d="M624.484 278.556H609.955C608.726 278.556 607.73 279.552 607.73 280.781V300.094C607.73 301.323 608.726 302.319 609.955 302.319H624.484C625.713 302.319 626.709 301.323 626.709 300.094V280.781C626.709 279.552 625.713 278.556 624.484 278.556Z" fill="#8697BF"/>
<path d="M653.564 278.556H639.035C637.806 278.556 636.81 279.552 636.81 280.781V300.094C636.81 301.323 637.806 302.319 639.035 302.319H653.564C654.793 302.319 655.789 301.323 655.789 300.094V280.781C655.789 279.552 654.793 278.556 653.564 278.556Z" fill="#8697BF"/>
<path d="M682.645 278.556H668.116C666.887 278.556 665.891 279.552 665.891 280.781V300.094C665.891 301.323 666.887 302.319 668.116 302.319H682.645C683.874 302.319 684.87 301.323 684.87 300.094V280.781C684.87 279.552 683.874 278.556 682.645 278.556Z" fill="#8697BF"/>
<path d="M711.703 278.556H697.174C695.945 278.556 694.949 279.552 694.949 280.781V300.094C694.949 301.323 695.945 302.319 697.174 302.319H711.703C712.932 302.319 713.928 301.323 713.928 300.094V280.781C713.928 279.552 712.932 278.556 711.703 278.556Z" fill="#8697BF"/>
<path d="M586.704 308.994H744.9V309.35C744.9 313.889 741.228 317.56 736.69 317.56H582.432C577.893 317.56 574.222 313.889 574.222 309.35V243.201C574.644 242.845 575.201 242.645 575.802 242.645H742.319C743.743 242.645 744.877 243.802 744.877 245.204C744.877 246.606 743.72 247.763 742.319 247.763H586.704C585.28 247.763 584.145 248.92 584.145 250.321V306.413C584.145 307.837 585.302 308.972 586.704 308.972V308.994Z" fill="#C3C9E0"/>
<path d="M743.587 231.698H575.512C576.981 229.429 579.539 227.916 582.432 227.916H736.69C739.582 227.916 742.141 229.407 743.609 231.698H743.587Z" fill="#67AFE5"/>
</g>
<defs>
<clipPath id="clip0_0_55">
<rect width="894.44" height="500.464" fill="white" transform="translate(0 0.768066)"/>
</clipPath>
</defs>
</svg>
