<svg width="19" height="19" viewBox="0 0 19 19" fill="none" xmlns="http://www.w3.org/2000/svg">
<g clip-path="url(#clip0_0_13)">
<path d="M18.3204 10.0583C18.3204 9.32081 18.2592 8.78267 18.1267 8.22461H9.50922V11.5531H14.5675C14.4655 12.3803 13.9148 13.626 12.691 14.4631L12.6739 14.5745L15.3986 16.6372L15.5873 16.6556C17.321 15.091 18.3204 12.7888 18.3204 10.0583Z" fill="#4285F4"/>
<path d="M9.50935 18.8283C11.9874 18.8283 14.0678 18.031 15.5874 16.6558L12.6912 14.4633C11.9161 14.9915 10.8759 15.3602 9.50935 15.3602C7.08217 15.3602 5.02217 13.7956 4.28782 11.6331L4.18019 11.642L1.34702 13.7846L1.30997 13.8853C2.81929 16.8152 5.91954 18.8283 9.50935 18.8283Z" fill="#34A853"/>
<path d="M4.28778 11.633C4.09402 11.0749 3.98188 10.477 3.98188 9.85911C3.98188 9.2412 4.09402 8.64328 4.27759 8.08521L4.27245 7.96635L1.40379 5.78931L1.30993 5.83294C0.687872 7.04876 0.330933 8.4141 0.330933 9.85911C0.330933 11.3041 0.687872 12.6694 1.30993 13.8852L4.28778 11.633Z" fill="#FBBC05"/>
<path d="M9.50935 4.35804C11.2328 4.35804 12.3953 5.08553 13.0582 5.69347L15.6486 3.22198C14.0577 1.77696 11.9874 0.890015 9.50935 0.890015C5.91954 0.890015 2.81928 2.90306 1.30997 5.83294L4.27763 8.08519C5.02216 5.92266 7.08217 4.35804 9.50935 4.35804Z" fill="#EB4335"/>
</g>
<defs>
<clipPath id="clip0_0_13">
<rect width="18" height="18" fill="white" transform="translate(0.329987 0.890015)"/>
</clipPath>
</defs>
</svg>
